<svg width="32" height="32" viewBox="0 0 32 32" fill="none" xmlns="http://www.w3.org/2000/svg">
<path d="M4.8999 23C4.76657 23 4.64657 22.9533 4.5399 22.86C4.44657 22.7533 4.3999 22.6333 4.3999 22.5V9.5C4.3999 9.35333 4.44657 9.23333 4.5399 9.14C4.64657 9.04667 4.76657 9 4.8999 9H10.0999C12.0599 9 13.5799 9.46667 14.6599 10.4C15.7399 11.3333 16.3066 12.6867 16.3599 14.46C16.3732 14.8467 16.3799 15.36 16.3799 16C16.3799 16.64 16.3732 17.1467 16.3599 17.52C16.2932 19.3733 15.7399 20.7533 14.6999 21.66C13.6732 22.5533 12.1732 23 10.1999 23H4.8999ZM10.0999 20.12C10.9799 20.12 11.6266 19.9133 12.0399 19.5C12.4532 19.0733 12.6732 18.4 12.6999 17.48C12.7266 17.0933 12.7399 16.5933 12.7399 15.98C12.7399 15.3667 12.7266 14.8733 12.6999 14.5C12.6732 13.6067 12.4332 12.9467 11.9799 12.52C11.5399 12.0933 10.8799 11.88 9.9999 11.88H7.9999V20.12H10.0999Z" fill="#E57928"/>
<path d="M19.2163 23C19.083 23 18.963 22.9533 18.8563 22.86C18.763 22.7533 18.7163 22.6333 18.7163 22.5V9.5C18.7163 9.35333 18.763 9.23333 18.8563 9.14C18.963 9.04667 19.083 9 19.2163 9H21.8563C22.003 9 22.123 9.04667 22.2163 9.14C22.3096 9.23333 22.3563 9.35333 22.3563 9.5V19.98H28.4163C28.563 19.98 28.683 20.0333 28.7763 20.14C28.8696 20.2333 28.9163 20.3533 28.9163 20.5V22.5C28.9163 22.6333 28.8696 22.7533 28.7763 22.86C28.683 22.9533 28.563 23 28.4163 23H19.2163Z" fill="#E57928"/>
</svg>
