<svg width="20" height="20" viewBox="0 0 20 20" fill="none" xmlns="http://www.w3.org/2000/svg">
<path fill-rule="evenodd" clip-rule="evenodd" d="M3.54344 8.33334H4.16675C5.54745 8.33334 6.66675 9.45259 6.66675 10.8333V11.6667C6.66675 12.1269 7.03984 12.5 7.50008 12.5C8.88082 12.5 10.0001 13.6193 10.0001 15V16.6667C10.5756 16.6667 11.134 16.5938 11.6667 16.4566V15C11.6667 13.6193 12.786 12.5 14.1667 12.5H16.1822C16.4947 11.728 16.6667 10.8841 16.6667 10C16.6667 9.11592 16.4947 8.27203 16.1822 7.50001H15.8334C15.3732 7.50001 15.0001 7.87309 15.0001 8.33334C15.0001 9.71408 13.8808 10.8333 12.5001 10.8333C11.1193 10.8333 10.0001 9.71408 10.0001 8.33334C10.0001 7.87309 9.627 7.50001 9.16675 7.50001H8.75008C7.20866 7.50001 5.94651 6.30427 5.84061 4.78977C4.72947 5.67798 3.9087 6.91423 3.54344 8.33334ZM6.29545 2.53336C3.55203 3.89715 1.66675 6.72841 1.66675 10C1.66675 14.2872 4.90409 17.8181 9.06751 18.2817C9.07193 18.2823 9.07637 18.2828 9.08081 18.2832C9.38268 18.3163 9.68939 18.3333 10.0001 18.3333C10.9726 18.3333 11.9061 18.1668 12.7738 17.8606C12.7762 17.8598 12.7786 17.8589 12.781 17.8581C14.8286 17.1334 16.5086 15.6311 17.466 13.7062C17.4668 13.7045 17.4676 13.7029 17.4684 13.7012C18.0221 12.5862 18.3334 11.3294 18.3334 10C18.3334 8.67118 18.0224 7.415 17.4692 6.30029C17.4679 6.29763 17.4665 6.29498 17.4652 6.29233C16.1009 3.55056 13.2705 1.66667 10.0001 1.66667C8.67004 1.66667 7.41278 1.97826 6.29731 2.53243C6.29669 2.53274 6.29607 2.53305 6.29545 2.53336ZM7.50008 3.81794V4.58334C7.50008 5.27369 8.05973 5.83334 8.75008 5.83334H9.16675C10.5475 5.83334 11.6667 6.95263 11.6667 8.33334C11.6667 8.7936 12.0398 9.16667 12.5001 9.16667C12.9603 9.16667 13.3334 8.7936 13.3334 8.33334C13.3334 7.15089 14.1543 6.16017 15.2573 5.90004C14.0372 4.33776 12.136 3.33334 10.0001 3.33334C9.116 3.33334 8.27211 3.50543 7.50008 3.81794ZM15.2046 14.1667H14.1667C13.7065 14.1667 13.3334 14.5397 13.3334 15V15.7748C14.053 15.3586 14.6875 14.8117 15.2046 14.1667ZM8.33342 16.4566C5.45804 15.7166 3.33341 13.1064 3.33341 10H4.16675C4.62699 10 5.00008 10.3731 5.00008 10.8333V11.6667C5.00008 13.0474 6.11938 14.1667 7.50008 14.1667C7.96034 14.1667 8.33342 14.5397 8.33342 15V16.4566Z" fill="#A0AEC1"/>
</svg>
