<svg width="20" height="20" viewBox="0 0 20 20" fill="none" xmlns="http://www.w3.org/2000/svg">
<path fill-rule="evenodd" clip-rule="evenodd" d="M9.16674 4.16672L5.24416 8.0893C5.08788 8.24558 4.87592 8.33337 4.65491 8.33337H3.33341V11.6667H4.65491C4.87592 11.6667 5.08788 11.7545 5.24416 11.9108L9.16671 15.8334L9.16674 4.16672ZM7.98826 2.98818C9.03822 1.93828 10.8334 2.68186 10.8334 4.16671V15.8334C10.8334 17.3184 9.03816 18.0617 7.98829 17.012L4.30973 13.3334H3.33341C2.4129 13.3334 1.66675 12.5871 1.66675 11.6667V8.33342C1.66675 7.41293 2.41292 6.66671 3.33341 6.66671H4.30973L7.98826 2.98818ZM14.7142 4.1074C15.0396 3.78197 15.5672 3.78197 15.8927 4.1074C19.147 7.36177 19.147 12.6382 15.8927 15.8925C15.5672 16.2179 15.0396 16.2179 14.7142 15.8925C14.3887 15.5671 14.3887 15.0394 14.7142 14.714C17.3176 12.1105 17.3176 7.88941 14.7142 5.28591C14.3887 4.96047 14.3887 4.43284 14.7142 4.1074ZM12.3571 6.46448C12.6825 6.13904 13.2102 6.13904 13.5356 6.46448C15.4882 8.4171 15.4882 11.5829 13.5356 13.5355C13.2102 13.8609 12.6825 13.8609 12.3571 13.5355C12.0316 13.2101 12.0316 12.6824 12.3571 12.357C13.6588 11.0553 13.6588 8.94474 12.3571 7.64299C12.0316 7.31755 12.0316 6.78991 12.3571 6.46448Z" fill="#A0AEC1"/>
</svg>
