<svg width="20" height="20" viewBox="0 0 20 20" fill="none" xmlns="http://www.w3.org/2000/svg">
<path fill-rule="evenodd" clip-rule="evenodd" d="M2.5 5C2.5 3.61929 3.61929 2.5 5 2.5H15C16.3807 2.5 17.5 3.6193 17.5 5V11.6659C17.5 11.6664 17.5 11.6669 17.5 11.6675V15C17.5 16.3807 16.3807 17.5 15 17.5H5C3.6193 17.5 2.5 16.3807 2.5 15V5ZM4.16667 13.6785V15C4.16667 15.4603 4.53975 15.8333 5 15.8333H15C15.4603 15.8333 15.8333 15.4603 15.8333 15V12.0118L14.7559 10.9344C14.4305 10.609 13.9028 10.609 13.5774 10.9344L12.8452 11.6667L13.9226 12.7441C14.248 13.0695 14.248 13.5972 13.9226 13.9226C13.5972 14.248 13.0695 14.248 12.7441 13.9226L8.92258 10.1011C8.59719 9.77571 8.06952 9.77568 7.74408 10.1011C7.74408 10.1011 7.74409 10.1011 7.74408 10.1011L4.16667 13.6785ZM11.6667 10.4882L10.1011 8.92258C9.12481 7.9463 7.54188 7.94632 6.56558 8.92256L4.16667 11.3215V5C4.16667 4.53976 4.53976 4.16667 5 4.16667H15C15.4603 4.16667 15.8333 4.53975 15.8333 5V9.66021C14.8518 8.78076 13.3422 8.81266 12.3989 9.75591L11.6667 10.4882ZM10.8333 6.66667C10.8333 6.20643 11.2064 5.83333 11.6667 5.83333H11.675C12.1352 5.83333 12.5083 6.20643 12.5083 6.66667C12.5083 7.1269 12.1352 7.5 11.675 7.5H11.6667C11.2064 7.5 10.8333 7.1269 10.8333 6.66667Z" fill="#A0AEC1"/>
</svg>
