<svg width="20" height="20" viewBox="0 0 20 20" fill="none" xmlns="http://www.w3.org/2000/svg">
<path fill-rule="evenodd" clip-rule="evenodd" d="M2.03893 4.51654C3.16416 3.76896 4.65002 3.33333 6.25008 3.33333C7.64013 3.33333 8.94399 3.66211 10.0001 4.23858C11.0562 3.66211 12.36 3.33333 13.7501 3.33333C15.3502 3.33333 16.836 3.76896 17.9612 4.51654C18.1937 4.67098 18.3334 4.93155 18.3334 5.21064V16.044C18.3334 16.3511 18.1645 16.6333 17.8939 16.7784C17.6232 16.9235 17.2947 16.908 17.0389 16.7381C16.2177 16.1925 15.0608 15.8333 13.7501 15.8333C12.4393 15.8333 11.2825 16.1925 10.4612 16.7381C10.1818 16.9237 9.81835 16.9237 9.53894 16.7381C8.71766 16.1925 7.56082 15.8333 6.25008 15.8333C4.93934 15.8333 3.7825 16.1925 2.96122 16.7381C2.70544 16.908 2.37692 16.9235 2.10628 16.7784C1.83564 16.6333 1.66675 16.3511 1.66675 16.044V5.21064C1.66675 4.93155 1.80646 4.67098 2.03893 4.51654ZM9.16675 5.68273C8.38383 5.2638 7.37349 4.99999 6.25008 4.99999C5.12667 4.99999 4.11633 5.2638 3.33341 5.68273V14.6883C4.21147 14.352 5.20648 14.1667 6.25008 14.1667C7.29368 14.1667 8.28869 14.352 9.16675 14.6883V5.68273ZM10.8334 14.6883C11.7115 14.352 12.7065 14.1667 13.7501 14.1667C14.7937 14.1667 15.7887 14.352 16.6667 14.6883V5.68273C15.8838 5.2638 14.8735 4.99999 13.7501 4.99999C12.6267 4.99999 11.6163 5.2638 10.8334 5.68273V14.6883Z" fill="#A0AEC1"/>
</svg>
