<svg width="20" height="20" viewBox="0 0 20 20" fill="none" xmlns="http://www.w3.org/2000/svg">
<path fill-rule="evenodd" clip-rule="evenodd" d="M15.2416 9.55878C16.4544 8.95941 17.2629 8.02546 17.6994 6.79198C17.8558 6.36769 17.9212 5.91751 17.8918 5.46842C17.8624 4.97822 17.6185 4.52265 17.2202 4.2137C16.913 3.9663 16.5554 3.81316 16.1706 3.71664C15.6754 3.59182 15.1744 3.57412 14.6681 3.63074C13.9265 3.70827 13.2203 3.9749 12.6229 4.40288C11.675 5.08042 11.0669 5.97931 10.7708 7.07316C10.6727 7.43445 10.6244 7.8025 10.6654 8.17731C10.6982 8.50592 10.8289 8.81857 11.0417 9.07813C11.2565 9.33547 11.5312 9.54097 11.8439 9.67814C12.321 9.89659 12.8274 9.98602 13.424 9.9886C13.4418 9.98748 13.4641 9.98623 13.4896 9.98481C13.5666 9.98051 13.6735 9.97453 13.7799 9.96511C14.2899 9.92123 14.7863 9.78325 15.2416 9.55878ZM9.98451 6.7915C9.54799 8.02504 8.73975 8.95904 7.52689 9.55844C7.07164 9.78317 6.57527 9.92127 6.06521 9.96511C5.95915 9.9745 5.85253 9.98047 5.77576 9.98477L5.77572 9.98477L5.70961 9.9886C5.11258 9.98635 4.60588 9.89658 4.12906 9.67812C3.81617 9.54127 3.54126 9.33584 3.32653 9.0784C3.11361 8.81882 2.98286 8.50617 2.94977 8.17754C2.90881 7.80272 2.9575 7.43465 3.05521 7.07334C3.35138 5.97944 3.95915 5.08051 4.90708 4.40293C5.50449 3.97489 6.21079 3.70824 6.95236 3.63076C7.45872 3.57413 7.95972 3.59183 8.455 3.71634C8.83982 3.81286 9.19743 3.96601 9.50467 4.21343C9.91165 4.54095 10.1373 4.95953 10.1762 5.4682C10.2057 5.91716 10.1405 6.3672 9.98451 6.7915ZM15.3268 11.1493L14.3756 15.9622C14.3713 15.9636 14.3667 15.9645 14.3621 15.9648C14.3608 15.9646 14.3597 15.9642 14.3586 15.9636C14.3575 15.963 14.3566 15.9622 14.3558 15.9612C14.3511 15.9542 14.3472 15.9467 14.3439 15.9389L13.7033 14.1316C13.7033 14.1302 13.7019 14.1292 13.6987 14.1269L13.6987 14.1269C13.6966 14.1254 13.6937 14.1233 13.6901 14.1203C13.6823 14.1266 13.674 14.1329 13.6656 14.1392C13.6531 14.1488 13.6401 14.1586 13.6277 14.1691C12.5414 15.0925 11.2938 15.6777 9.90191 15.9615C9.51697 16.0406 9.1269 16.0921 8.73466 16.1155C8.64711 16.1205 8.55944 16.1243 8.47179 16.128C8.40796 16.1308 8.34414 16.1335 8.28039 16.1367C8.25773 16.1367 8.23507 16.1405 8.21242 16.1442C8.20204 16.146 8.19165 16.1477 8.18127 16.149H7.97907C7.96298 16.1474 7.94696 16.1454 7.93093 16.1434C7.89726 16.1393 7.86355 16.1351 7.82908 16.1344C7.5399 16.13 7.25131 16.1067 6.96513 16.0647C6.2571 15.9644 5.57554 15.7256 4.95903 15.3617C3.43034 14.4499 2.46298 13.1169 2.03843 11.3843C2.02575 11.3312 2.01644 11.2781 2.00714 11.225L2.00011 11.1852C1.99965 11.1727 2.00065 11.1602 2.00308 11.148H2.12466C2.13441 11.1634 2.14334 11.1794 2.15143 11.1958C2.56011 12.0827 3.17859 12.792 3.96854 13.3533C4.98154 14.0784 6.21067 14.4343 7.45244 14.362C8.88565 14.2777 10.1979 13.8246 11.4055 13.0542C11.7158 12.8554 12.0068 12.6276 12.2744 12.3738C12.2949 12.3542 12.3147 12.3343 12.3342 12.314C12.341 12.304 12.3472 12.2936 12.3527 12.2828L10.866 11.1424C10.9324 11.1198 15.1983 11.1297 15.3268 11.1493Z" fill="#A0AEC1"/>
</svg>
