<svg width="20" height="20" viewBox="0 0 20 20" fill="none" xmlns="http://www.w3.org/2000/svg">
<g clip-path="url(#clip0)">
<path d="M10.0007 4C7.33407 4 5.6674 5.33333 5.00073 8C6.00073 6.66667 7.1674 6.16667 8.50073 6.5C9.26156 6.69 9.8049 7.24167 10.4074 7.85333C11.3882 8.84833 12.5224 10 15.0007 10C17.6674 10 19.3341 8.66667 20.0007 6C19.0007 7.33333 17.8341 7.83333 16.5007 7.5C15.7399 7.31 15.1966 6.75833 14.5941 6.14667C13.6141 5.15167 12.4799 4 10.0007 4ZM5.00073 10C2.33407 10 0.667399 11.3333 0.000732422 14C1.00073 12.6667 2.1674 12.1667 3.50073 12.5C4.26157 12.69 4.8049 13.2417 5.4074 13.8533C6.38823 14.8483 7.5224 16 10.0007 16C12.6674 16 14.3341 14.6667 15.0007 12C14.0007 13.3333 12.8341 13.8333 11.5007 13.5C10.7399 13.31 10.1966 12.7583 9.59406 12.1467C8.61406 11.1517 7.4799 10 5.00073 10Z" fill="#A0AEC1"/>
</g>
<defs>
<clipPath id="clip0">
<rect width="20" height="20" fill="white"/>
</clipPath>
</defs>
</svg>
