<svg width="20" height="20" viewBox="0 0 20 20" fill="none" xmlns="http://www.w3.org/2000/svg">
<path fill-rule="evenodd" clip-rule="evenodd" d="M6.19919 7.85891C5.73825 6.96485 5.71826 5.90012 6.11576 3.98368L6.52689 2H16.5569L16.1445 3.98368C15.8301 5.50255 15.4558 6.51006 14.939 7.26222C13.8274 8.8522 11.9643 9.78958 9.91876 9.78958C8.1597 9.78958 6.84254 9.10788 6.19919 7.85891ZM12.8919 6.8388C13.3976 6.427 13.6989 5.84486 13.8962 4.89391L14.052 4.14142H8.14289L7.98681 4.89391C7.82216 5.68873 7.83422 6.21399 8.02456 6.59734C8.33418 7.20696 9.17802 7.56251 10.3807 7.56251C11.418 7.56251 12.3316 7.29294 12.8919 6.8388ZM5.60216 12.1288C4.7856 13.0229 4.34274 14.0879 3.97792 16.0037L3.6001 17.9877H13.6304L14.0076 16.0037C14.2956 14.4849 14.3232 13.477 14.1053 12.7245C13.6256 11.1359 12.1346 10.1985 10.0898 10.1985C8.33038 10.1985 6.74421 10.8795 5.60216 12.1288ZM11.8891 13.1486C12.2314 13.5604 12.3018 14.1422 12.121 15.0938L11.9779 15.846H6.06819L6.21126 15.0938C6.3629 14.2984 6.58242 13.7738 6.92599 13.3901C7.47734 12.7805 8.46299 12.4249 9.66626 12.4249C10.7033 12.4249 11.5084 12.6961 11.8891 13.1486Z" fill="#A0AEC1"/>
</svg>
