<svg width="20" height="20" viewBox="0 0 20 20" fill="none" xmlns="http://www.w3.org/2000/svg">
<path fill-rule="evenodd" clip-rule="evenodd" d="M8.6723 2.39999C6.62642 2.39999 5.88454 2.61565 5.1366 3.02062C4.38866 3.42558 3.80168 4.01985 3.40167 4.77706C3.00167 5.53428 2.78865 6.28536 2.78865 8.35661V8.37415V11.8434V16.0437C2.78294 16.0477 2.77726 16.0519 2.77161 16.0562C2.71715 16.0977 2.67436 16.1408 2.57077 16.2769L2.11857 16.8707C2.04169 16.9716 2 17.0955 2 17.223C2 17.5416 2.25517 17.8 2.56994 17.8H2.78865V17.8H12.099V17.8H12.1164C14.1622 17.8 14.9041 17.5843 15.6521 17.1794C16.4 16.7744 16.987 16.1801 17.387 15.4229C17.787 14.6657 18 13.9146 18 11.8434V8.35661C18 6.28536 17.787 5.53428 17.387 4.77706C16.987 4.01985 16.4 3.42558 15.6521 3.02062C14.9041 2.61565 14.1622 2.39999 12.1164 2.39999H8.6723ZM10.2632 7.04652C10.102 7.04652 9.96084 7.08063 9.84428 7.14425C9.72772 7.20786 9.63575 7.30097 9.57291 7.41898C9.51008 7.53699 9.47639 7.67989 9.47639 7.84308V9.27864H8.00953C7.84662 9.27864 7.70397 9.31239 7.58617 9.37534C7.46837 9.43828 7.37541 9.53041 7.31191 9.64718C7.24841 9.76394 7.21436 9.90534 7.21436 10.0668C7.21436 10.2283 7.24841 10.3697 7.31191 10.4864C7.37541 10.6032 7.46837 10.6953 7.58617 10.7583C7.70397 10.8212 7.84662 10.855 8.00953 10.855H9.47639V12.4896C9.47639 12.6528 9.51008 12.7957 9.57291 12.9137C9.63575 13.0317 9.72772 13.1248 9.84428 13.1885C9.96084 13.2521 10.102 13.2862 10.2632 13.2862C10.4244 13.2862 10.5655 13.2521 10.6821 13.1885C10.7986 13.1248 10.8906 13.0317 10.9534 12.9137C11.0163 12.7957 11.05 12.6528 11.05 12.4896V10.855H12.648C12.8109 10.855 12.9536 10.8212 13.0714 10.7583C13.1892 10.6953 13.2821 10.6032 13.3456 10.4864C13.4091 10.3697 13.4432 10.2283 13.4432 10.0668C13.4432 9.90534 13.4091 9.76394 13.3456 9.64718C13.2821 9.53041 13.1892 9.43828 13.0714 9.37534C12.9536 9.31239 12.8109 9.27864 12.648 9.27864H11.05V7.84308C11.05 7.67989 11.0163 7.53699 10.9534 7.41898C10.8906 7.30097 10.7986 7.20786 10.6821 7.14425C10.5655 7.08063 10.4244 7.04652 10.2632 7.04652Z" fill="#A0AEC1"/>
</svg>
