<svg width="20" height="20" viewBox="0 0 20 20" fill="none" xmlns="http://www.w3.org/2000/svg">
<path fill-rule="evenodd" clip-rule="evenodd" d="M15.2416 9.55878C16.4544 8.95941 17.263 8.02546 17.6995 6.79198C17.8559 6.36769 17.9213 5.91751 17.8919 5.46842C17.8624 4.97822 17.6186 4.52265 17.2203 4.2137C16.9131 3.9663 16.5555 3.81316 16.1707 3.71664C15.6754 3.59182 15.1745 3.57412 14.6681 3.63074C13.9266 3.70827 13.2204 3.9749 12.623 4.40288C11.6751 5.08042 11.067 5.97931 10.7709 7.07316C10.6728 7.43445 10.6245 7.8025 10.6654 8.17731C10.6983 8.50592 10.8289 8.81857 11.0418 9.07813C11.2566 9.33547 11.5313 9.54097 11.844 9.67814C12.3211 9.89659 12.8274 9.98602 13.4241 9.9886C13.4419 9.98748 13.4641 9.98623 13.4897 9.98481C13.5666 9.98051 13.6736 9.97453 13.78 9.96511C14.29 9.92123 14.7863 9.78325 15.2416 9.55878ZM9.98459 6.7915C9.54806 8.02504 8.73983 8.95904 7.52696 9.55844C7.07172 9.78317 6.57535 9.92127 6.06528 9.96511C5.95923 9.9745 5.85261 9.98047 5.77583 9.98477L5.7758 9.98477L5.70968 9.9886C5.11265 9.98635 4.60595 9.89658 4.12913 9.67812C3.81625 9.54127 3.54134 9.33584 3.3266 9.0784C3.11368 8.81882 2.98293 8.50617 2.94985 8.17754C2.90888 7.80272 2.95757 7.43465 3.05529 7.07334C3.35145 5.97944 3.95922 5.08051 4.90715 4.40293C5.50456 3.97489 6.21086 3.70824 6.95243 3.63076C7.4588 3.57413 7.95979 3.59183 8.45508 3.71634C8.83989 3.81286 9.1975 3.96601 9.50475 4.21342C9.91172 4.54095 10.1374 4.95953 10.1763 5.4682C10.2058 5.91716 10.1405 6.3672 9.98459 6.7915ZM15.3269 11.1493L14.3757 15.9622C14.3713 15.9636 14.3668 15.9645 14.3622 15.9648C14.3609 15.9646 14.3597 15.9642 14.3587 15.9636C14.3576 15.963 14.3567 15.9622 14.3559 15.9612C14.3512 15.9542 14.3472 15.9467 14.344 15.9389L13.7034 14.1316C13.7034 14.1302 13.7019 14.1292 13.6987 14.1269L13.6987 14.1269C13.6967 14.1254 13.6938 14.1233 13.6902 14.1203C13.6824 14.1266 13.6741 14.1329 13.6657 14.1392C13.6531 14.1488 13.6402 14.1586 13.6277 14.1691C12.5414 15.0925 11.2939 15.6777 9.90199 15.9615C9.51704 16.0406 9.12697 16.0921 8.73474 16.1155C8.64718 16.1205 8.55951 16.1243 8.47186 16.128C8.40804 16.1308 8.34422 16.1335 8.28046 16.1367C8.2578 16.1367 8.23515 16.1405 8.21249 16.1442C8.20211 16.146 8.19173 16.1477 8.18134 16.149H7.97915C7.96306 16.1474 7.94703 16.1454 7.931 16.1434C7.89733 16.1393 7.86362 16.1351 7.82915 16.1344C7.53997 16.13 7.25138 16.1067 6.9652 16.0647C6.25718 15.9644 5.57561 15.7256 4.95911 15.3617C3.43042 14.4499 2.46305 13.1169 2.03851 11.3843C2.02582 11.3312 2.01652 11.2781 2.00721 11.225L2.00018 11.1852C1.99972 11.1727 2.00072 11.1602 2.00316 11.148H2.12474C2.13449 11.1634 2.14342 11.1794 2.1515 11.1958C2.56019 12.0827 3.17866 12.792 3.96861 13.3533C4.98161 14.0784 6.21074 14.4343 7.45252 14.362C8.88572 14.2777 10.198 13.8246 11.4056 13.0542C11.7159 12.8554 12.0068 12.6276 12.2745 12.3738C12.295 12.3542 12.3148 12.3343 12.3343 12.314C12.3411 12.304 12.3473 12.2936 12.3528 12.2828L10.866 11.1424C10.9325 11.1198 15.1984 11.1297 15.3269 11.1493Z" fill="white"/>
</svg>
