<svg width="20" height="20" viewBox="0 0 20 20" fill="none" xmlns="http://www.w3.org/2000/svg">
<path fill-rule="evenodd" clip-rule="evenodd" d="M16.1837 6.45759C15.8127 6.25006 15.3764 6.06885 15.2138 6.00307C15.1575 5.96 15.1214 5.9319 15.1214 5.9319C15.1214 5.9319 12.9231 4.26092 11.9537 3.82792C10.9842 3.39433 9.29817 2.45059 7.58678 2.50202C6.23455 2.54209 5.4008 2.80823 5.10919 2.88239C4.76353 2.9709 4.53216 3.07496 4.91103 3.26395C5.03769 3.32794 5.57813 3.66943 6.23455 4.06714C7.1927 4.64906 8.39856 5.34939 8.92268 5.47677C9.42371 5.59878 10.2501 5.7776 11.3057 5.75367C12.5104 5.72676 13.0965 6.27279 13.2147 6.47194C12.9991 6.1466 12.1783 5.88585 11.0833 5.95761C10.0295 6.02639 9.1822 5.95163 8.68905 5.79614C7.72245 5.49053 6.6866 5.03182 5.8157 4.59942C5.45766 4.71484 5.23698 4.81233 5.103 4.87273C4.799 5.00909 4.5147 5.25489 4.94086 5.38228C5.24543 5.47378 8.09513 6.55687 8.92437 6.6095C9.39613 6.6394 10.1696 6.6693 11.1222 6.47792C12.1997 6.26203 12.7609 6.7321 12.8927 6.91451C12.556 7.45755 12.3359 8.0891 12.399 8.79062C8.4588 8.05262 7.20115 7.67046 6.31167 7.50838C4.75621 7.22371 2.78079 8.62377 2.53815 10.3575C2.40079 11.3425 2.63723 12.2624 3.20076 13.114C3.82395 14.0565 4.64475 14.8687 4.7641 15.0421C4.84066 15.1893 4.81589 15.578 4.82095 15.84C4.82658 16.1342 5.17449 16.3979 5.37772 16.4177C5.49819 16.4296 7.8311 17.2035 7.8311 17.2035L11.2865 18.3333C11.2865 18.3333 11.3395 18.0803 11.3496 17.9732C11.3761 17.7017 11.1818 17.0319 10.3717 16.7813C9.17995 16.4003 8.94576 16.328 8.69187 16.2466C8.55507 16.203 8.65133 16.2006 8.86244 16.023C9.22386 15.6976 9.53293 15.2592 9.69112 14.9016C10.3965 13.309 9.50872 11.8904 9.50872 11.8904C9.50872 11.8904 10.0627 12.5082 10.271 13.5889C10.5311 14.9387 9.66973 16.0098 9.66973 16.0098L10.1837 16.1677C10.1837 16.1677 13.504 12.6158 13.8283 12.2319C14.1019 11.9077 14.5782 11.7038 14.8202 11.62C15.7058 11.3473 16.8137 10.8204 17.0952 10.6309C17.3766 10.4413 17.7217 9.77264 17.8084 9.60757C17.8951 9.44191 18.0083 9.22482 18.0308 8.97841C18.0381 8.8917 17.5652 8.22127 17.5652 8.22127C17.5652 8.22127 16.8081 6.86068 16.1837 6.45759M6.52047 17.4043C6.324 17.5281 6.25588 17.8576 6.54186 18.0359C6.79576 18.1776 7.64808 17.6812 7.64808 17.6812L6.79295 17.3947C6.79295 17.3947 6.65896 17.3349 6.52047 17.4043" fill="white"/>
</svg>
